<?xml version="1.0" encoding="UTF-8"?>
<svg id="Layer_1" data-name="Layer 1" xmlns="http://www.w3.org/2000/svg" xmlns:xlink="http://www.w3.org/1999/xlink" viewBox="0 0 886.62 1329.78">
  <defs>
    <style>
      .cls-1 {
        fill: #979797;
      }

      .cls-2 {
        fill: #ddd;
      }

      .cls-3 {
        fill: #f0f0f0;
      }

      .cls-4, .cls-5 {
        fill: #fff;
      }

      .cls-6 {
        fill: #d1d1d1;
      }

      .cls-7 {
        fill: #fafafa;
      }

      .cls-8 {
        fill: #dbdbdb;
      }

      .cls-9 {
        fill: #f5f5f5;
      }

      .cls-10 {
        clip-path: url(#clippath-2);
      }

      .cls-11 {
        isolation: isolate;
      }

      .cls-12 {
        fill: #d6d6d6;
      }

      .cls-13 {
        clip-path: url(#clippath-6);
      }

      .cls-14 {
        fill: #e0e0e0;
      }

      .cls-15 {
        fill: #c7c7c7;
      }

      .cls-16 {
        fill: #bdbdbd;
      }

      .cls-17 {
        clip-path: url(#clippath-7);
      }

      .cls-18 {
        clip-path: url(#clippath-1);
      }

      .cls-19 {
        clip-path: url(#clippath-4);
      }

      .cls-20 {
        fill: #e6e6e6;
      }

      .cls-21 {
        fill: gray;
      }

      .cls-22 {
        fill: #8f8f8f;
      }

      .cls-23 {
        fill: #b8b8b8;
      }

      .cls-24 {
        fill: #a3a3a3;
      }

      .cls-25 {
        clip-path: url(#clippath-9);
      }

      .cls-26 {
        clip-path: url(#clippath);
      }

      .cls-27 {
        fill: #858585;
      }

      .cls-28 {
        fill: #ebebeb;
      }

      .cls-29 {
        fill: #adadad;
      }

      .cls-30 {
        fill: none;
      }

      .cls-5 {
        stroke: #000;
        stroke-miterlimit: 10;
      }

      .cls-31 {
        fill: #999;
      }

      .cls-32 {
        clip-path: url(#clippath-3);
      }

      .cls-33 {
        fill: #ccc;
      }

      .cls-34 {
        clip-path: url(#clippath-8);
      }

      .cls-35 {
        fill: #b3b3b3;
      }

      .cls-36 {
        fill: #c2c2c2;
      }

      .cls-37 {
        clip-path: url(#clippath-5);
      }

      .cls-38 {
        fill: #a8a8a8;
      }

      .cls-39 {
        fill: #949494;
      }

      .cls-40 {
        fill: #8a8a8a;
      }

      .cls-41 {
        fill: #9e9e9e;
      }
    </style>
    <clipPath id="clippath">
      <path class="cls-30" d="m464.76,228.16l34.44,28.88c-11.89-8.29-38.43,5.8-59.16,31.4l-34.44-28.88c20.73-25.6,47.27-39.69,59.16-31.4Z"/>
    </clipPath>
    <clipPath id="clippath-1">
      <path class="cls-30" d="m77.45,776.22l-34.44-28.88c-10.71-8.98-3.37-35.85,16.87-60.85l34.44,28.88c-20.24,25-27.59,51.87-16.87,60.85Z"/>
    </clipPath>
    <clipPath id="clippath-2">
      <path class="cls-30" d="m77.44,776.23l-34.44-28.88c.26.22.54.43.82.63l34.44,28.88c-.28-.2-.56-.41-.82-.63Z"/>
    </clipPath>
    <clipPath id="clippath-3">
      <path class="cls-30" d="m76.79,776.99l-34.44-28.88c.27.22.55.44.84.64l34.44,28.88c-.29-.2-.57-.42-.84-.64Z"/>
    </clipPath>
    <clipPath id="clippath-4">
      <path class="cls-30" d="m805.96,466.31l34.44,28.88c-.26-.22-.53-.43-.82-.63l-34.44-28.88c.28.2.56.41.82.63Z"/>
    </clipPath>
    <clipPath id="clippath-5">
      <path class="cls-30" d="m805.96,466.31l34.44,28.88c10.71,8.98,3.36,35.86-16.87,60.85l-34.44-28.88c20.24-24.99,27.59-51.87,16.87-60.85Z"/>
    </clipPath>
    <clipPath id="clippath-6">
      <path class="cls-30" d="m806.6,465.54l34.44,28.88c10.91,9.14,3.45,36.41-17.16,61.87l-34.44-28.88c20.61-25.45,28.07-52.72,17.16-61.87Z"/>
    </clipPath>
    <clipPath id="clippath-7">
      <path class="cls-30" d="m453.29,1006.21c-13.95,9.75-27.19,13.36-34.65,8.16l-34.44-28.88c7.46,5.21,20.7,1.59,34.65-8.16,11.48,9.63,22.96,19.25,34.44,28.88Z"/>
    </clipPath>
    <clipPath id="clippath-8">
      <path class="cls-30" d="m477.8,982.97c-7.72,9.53-16.24,17.47-24.51,23.25-1.21-1.01-2.82-2.37-4.03-3.38-1.28-1.08-3-2.51-4.28-3.59s-3.11-2.61-4.44-3.73-3.17-2.65-4.52-3.79-3.16-2.65-4.51-3.78-3.1-2.6-4.42-3.71-2.97-2.49-4.24-3.56c-1.19-1-2.79-2.34-3.98-3.34,8.27-5.78,16.79-13.71,24.51-23.25,10.33,8.66,24.11,20.21,34.44,28.88Z"/>
    </clipPath>
    <clipPath id="clippath-9">
      <path class="cls-30" d="m443.72,954.34l34.44,28.88c-21.12,26.08-48.05,40.38-60.15,31.93l-34.44-28.88c12.1,8.44,39.04-5.85,60.15-31.93Z"/>
    </clipPath>
  </defs>
  <g>
    <rect x="31.52" y="60.77" width="820.08" height="1121" rx="60.3" ry="60.3"/>
    <path class="cls-4" d="m791.3,61.27c32.97,0,59.8,26.83,59.8,59.8v1000.4c0,32.97-26.83,59.8-59.8,59.8H91.82c-32.97,0-59.8-26.83-59.8-59.8V121.07c0-32.97,26.83-59.8,59.8-59.8h699.48m0-1H91.82c-33.58,0-60.8,27.22-60.8,60.8v1000.4c0,33.58,27.22,60.8,60.8,60.8h699.48c33.58,0,60.8-27.22,60.8-60.8V121.07c0-33.58-27.22-60.8-60.8-60.8h0Z"/>
  </g>
  <g class="cls-11">
    <polygon class="cls-2" points="405.6 259.56 440.04 288.44 94.32 715.37 59.88 686.5 405.6 259.56"/>
    <g class="cls-11">
      <g class="cls-26">
        <g class="cls-11">
          <path class="cls-27" d="m464.76,228.16l34.44,28.88c-5.51-3.85-14.17-2.88-23.95,1.82l-34.44-28.88c9.77-4.7,18.43-5.66,23.95-1.82"/>
          <path class="cls-40" d="m440.81,229.98l34.44,28.88c-1.25.6-2.51,1.26-3.79,1.98l-34.44-28.88c1.28-.72,2.54-1.38,3.79-1.98"/>
          <path class="cls-22" d="m437.02,231.96l34.44,28.88c-1.01.57-2.03,1.17-3.05,1.81l-34.44-28.88c1.02-.64,2.04-1.24,3.05-1.81"/>
          <path class="cls-39" d="m433.97,233.77l34.44,28.88c-.89.55-1.78,1.13-2.67,1.73l-34.44-28.88c.89-.6,1.78-1.18,2.67-1.73"/>
          <path class="cls-31" d="m431.3,235.5l34.44,28.88c-.8.54-1.61,1.11-2.42,1.69l-34.44-28.88c.81-.58,1.61-1.15,2.42-1.69"/>
          <path class="cls-41" d="m428.89,237.19l34.44,28.88c-.73.53-1.47,1.08-2.2,1.64l-34.44-28.88c.74-.56,1.47-1.11,2.2-1.64"/>
          <path class="cls-24" d="m426.68,238.83l34.44,28.88c-.71.54-1.41,1.09-2.12,1.66l-34.44-28.88c.71-.57,1.41-1.12,2.12-1.66"/>
          <path class="cls-38" d="m424.56,240.49l34.44,28.88c-.67.54-1.34,1.09-2.01,1.66l-34.44-28.88c.67-.57,1.34-1.12,2.01-1.66"/>
          <path class="cls-29" d="m422.55,242.15l34.44,28.88c-.64.54-1.29,1.1-1.93,1.67l-34.44-28.88c.64-.57,1.29-1.12,1.93-1.67"/>
          <path class="cls-35" d="m420.62,243.82l34.44,28.88c-.63.56-1.26,1.12-1.89,1.7l-34.44-28.88c.63-.58,1.26-1.15,1.89-1.7"/>
          <path class="cls-23" d="m418.74,245.52l34.44,28.88c-.6.56-1.2,1.12-1.8,1.7l-34.44-28.88c.6-.58,1.2-1.14,1.8-1.7"/>
          <path class="cls-16" d="m416.93,247.21l34.44,28.88c-.6.57-1.19,1.15-1.78,1.74l-34.44-28.88c.59-.59,1.19-1.17,1.78-1.74"/>
          <path class="cls-36" d="m415.15,248.96l34.44,28.88c-.57.56-1.13,1.14-1.69,1.72l-34.44-28.88c.56-.58,1.13-1.15,1.69-1.72"/>
          <path class="cls-15" d="m413.46,250.68l34.44,28.88c-.56.58-1.11,1.16-1.67,1.76l-34.44-28.88c.55-.59,1.11-1.18,1.67-1.76"/>
          <path class="cls-33" d="m411.79,252.43l34.44,28.88c-.52.56-1.04,1.13-1.56,1.7l-34.44-28.88c.52-.57,1.04-1.14,1.56-1.7"/>
          <path class="cls-6" d="m410.23,254.13l34.44,28.88c-.52.57-1.03,1.15-1.54,1.74l-34.44-28.88c.51-.59,1.02-1.17,1.54-1.74"/>
          <path class="cls-12" d="m408.7,255.87l34.44,28.88c-.48.55-.95,1.11-1.43,1.67l-34.44-28.88c.47-.56.95-1.12,1.43-1.67"/>
          <path class="cls-8" d="m407.27,257.54l34.44,28.88c-.47.56-.94,1.13-1.41,1.7l-34.44-28.88c.47-.57.94-1.14,1.41-1.7"/>
          <path class="cls-14" d="m405.86,259.24l34.44,28.88c-.09.11-.17.21-.26.32l-34.44-28.88c.09-.11.17-.21.26-.32"/>
        </g>
      </g>
    </g>
    <g class="cls-11">
      <g class="cls-18">
        <g class="cls-11">
          <path class="cls-14" d="m59.88,686.5l34.44,28.88c-.37.46-.74.92-1.11,1.38l-34.44-28.88c.36-.46.73-.92,1.11-1.38"/>
          <path class="cls-20" d="m58.77,687.88l34.44,28.88c-.45.57-.89,1.13-1.32,1.7l-34.44-28.88c.43-.57.87-1.14,1.32-1.7"/>
          <path class="cls-28" d="m57.45,689.58l34.44,28.88c-.46.6-.91,1.21-1.36,1.81l-34.44-28.88c.45-.6.9-1.21,1.36-1.81"/>
          <path class="cls-3" d="m56.09,691.39l34.44,28.88c-.47.63-.92,1.27-1.37,1.9l-34.44-28.88c.45-.63.91-1.27,1.37-1.9"/>
          <path class="cls-9" d="m54.72,693.29l34.44,28.88c-.54.76-1.07,1.52-1.58,2.28l-34.44-28.88c.51-.76,1.04-1.52,1.58-2.28"/>
          <path class="cls-7" d="m53.14,695.57l34.44,28.88c-.63.92-1.23,1.85-1.82,2.77l-34.44-28.88c.59-.92,1.2-1.84,1.82-2.77"/>
          <path class="cls-4" d="m51.31,698.33l34.44,28.88c-2.65,4.15-4.93,8.26-6.82,12.25l-34.44-28.88c1.88-3.99,4.16-8.1,6.82-12.25"/>
          <path class="cls-7" d="m44.5,710.58l34.44,28.88c-.89,1.88-1.68,3.73-2.39,5.54l-34.44-28.88c.71-1.81,1.5-3.66,2.39-5.54"/>
          <path class="cls-9" d="m42.11,716.12l34.44,28.88c-.63,1.61-1.19,3.2-1.67,4.75l-34.44-28.88c.48-1.55,1.04-3.13,1.67-4.75"/>
          <path class="cls-3" d="m40.44,720.87l34.44,28.88c-.4,1.29-.76,2.56-1.06,3.8l-34.44-28.88c.3-1.24.65-2.5,1.06-3.8"/>
          <path class="cls-28" d="m39.38,724.66l34.44,28.88c-.25,1.04-.47,2.06-.65,3.06l-34.44-28.88c.18-1,.4-2.02.65-3.06"/>
          <path class="cls-20" d="m38.73,727.72l34.44,28.88c-.16.87-.28,1.72-.38,2.56l-34.44-28.88c.1-.84.23-1.69.38-2.56"/>
          <path class="cls-14" d="m38.35,730.28l34.44,28.88c-.09.73-.15,1.45-.2,2.16l-34.44-28.88c.04-.7.11-1.42.2-2.16"/>
          <path class="cls-8" d="m38.15,732.44l34.44,28.88c-.04.65-.06,1.3-.06,1.92l-34.44-28.88c0-.63.02-1.27.06-1.92"/>
          <path class="cls-12" d="m38.09,734.36l34.44,28.88c0,.6.02,1.18.05,1.76l-34.44-28.88c-.03-.57-.05-1.16-.05-1.76"/>
          <path class="cls-6" d="m38.14,736.12l34.44,28.88c.03.53.08,1.06.15,1.57l-34.44-28.88c-.06-.51-.11-1.03-.15-1.57"/>
          <path class="cls-33" d="m38.29,737.69l34.44,28.88c.06.5.14.98.23,1.46l-34.44-28.88c-.09-.47-.17-.96-.23-1.46"/>
          <path class="cls-15" d="m38.52,739.15l34.44,28.88c.09.46.19.91.31,1.35l-34.44-28.88c-.12-.44-.22-.89-.31-1.35"/>
          <path class="cls-36" d="m38.83,740.49l34.44,28.88c.12.43.25.85.39,1.25l-34.44-28.88c-.14-.4-.28-.82-.39-1.25"/>
          <path class="cls-16" d="m39.23,741.74l34.44,28.88c.14.4.3.79.47,1.17l-34.44-28.88c-.17-.38-.33-.77-.47-1.17"/>
          <path class="cls-23" d="m39.7,742.91l34.44,28.88c.17.38.36.74.55,1.09l-34.44-28.88c-.2-.35-.38-.72-.55-1.09"/>
          <path class="cls-35" d="m40.25,744.01l34.44,28.88c.2.35.41.69.64,1.02l-34.44-28.88c-.23-.33-.44-.67-.64-1.02"/>
          <path class="cls-29" d="m40.89,745.03l34.44,28.88c.23.34.48.66.74.96l-34.44-28.88c-.26-.31-.51-.63-.74-.96"/>
          <path class="cls-38" d="m41.63,745.99l34.44,28.88c.27.31.55.61.85.89l-34.44-28.88c-.3-.28-.58-.58-.85-.89"/>
          <path class="cls-24" d="m42.48,746.89l34.44,28.88c.17.16.34.31.52.46l-34.44-28.88c-.18-.15-.35-.3-.52-.46"/>
        </g>
      </g>
    </g>
    <g class="cls-11">
      <g class="cls-10">
        <g class="cls-11">
          <path d="m43.82,747.98l34.44,28.88c-.28-.2-.56-.41-.82-.63l-34.44-28.88c.26.22.54.43.82.63"/>
        </g>
      </g>
    </g>
    <g class="cls-11">
      <g class="cls-32">
        <g class="cls-11">
          <path class="cls-27" d="m43.19,748.76l34.44,28.88c-.29-.2-.57-.42-.84-.64l-34.44-28.88c.27.22.55.44.84.64"/>
        </g>
      </g>
    </g>
    <polygon class="cls-21" points="805.14 465.68 839.58 494.55 499.2 257.04 464.76 228.16 805.14 465.68"/>
    <g class="cls-11">
      <g class="cls-19">
        <g class="cls-11">
          <path class="cls-27" d="m805.96,466.31l34.44,28.88c-.26-.22-.53-.43-.82-.63l-34.44-28.88c.28.2.56.41.82.63"/>
        </g>
      </g>
    </g>
    <polygon points="384.2 985.49 418.64 1014.37 78.26 776.85 43.82 747.98 384.2 985.49"/>
    <polygon class="cls-21" points="383.57 986.28 418.01 1015.15 77.63 777.64 43.19 748.76 383.57 986.28"/>
    <g class="cls-11">
      <g class="cls-37">
        <g class="cls-11">
          <path d="m805.96,466.31l34.44,28.88c.18.15.35.3.52.46l-34.44-28.88c-.17-.16-.34-.31-.52-.46"/>
          <path d="m806.48,466.77l34.44,28.88c.3.28.58.58.85.89l-34.44-28.88c-.27-.31-.55-.61-.85-.89"/>
          <path d="m807.33,467.66l34.44,28.88c.26.31.51.63.74.96l-34.44-28.88c-.23-.33-.48-.66-.74-.96"/>
          <path d="m808.07,468.62l34.44,28.88c.23.33.44.67.64,1.02l-34.44-28.88c-.2-.35-.41-.69-.64-1.02"/>
          <path d="m808.71,469.64l34.44,28.88c.2.35.38.72.55,1.09l-34.44-28.88c-.17-.38-.36-.74-.55-1.09"/>
          <path d="m809.26,470.74l34.44,28.88c.17.38.33.77.47,1.17l-34.44-28.88c-.14-.4-.3-.79-.47-1.17"/>
          <path d="m809.73,471.91l34.44,28.88c.14.4.27.82.39,1.25l-34.44-28.88c-.12-.43-.25-.85-.39-1.25"/>
          <path d="m810.12,473.16l34.44,28.88c.12.44.22.89.31,1.35l-34.44-28.88c-.09-.46-.19-.91-.31-1.35"/>
          <path d="m810.44,474.5l34.44,28.88c.09.47.17.96.23,1.46l-34.44-28.88c-.06-.5-.14-.98-.23-1.46"/>
          <path d="m810.67,475.96l34.44,28.88c.06.51.11,1.03.15,1.57l-34.44-28.88c-.03-.53-.08-1.06-.15-1.57"/>
          <path d="m810.82,477.53l34.44,28.88c.03.57.05,1.16.05,1.76l-34.44-28.88c0-.6-.02-1.18-.05-1.76"/>
          <path d="m810.87,479.29l34.44,28.88c0,.63-.02,1.27-.06,1.92l-34.44-28.88c.04-.65.06-1.3.06-1.92"/>
          <path d="m810.81,481.21l34.44,28.88c-.04.71-.11,1.43-.2,2.16l-34.44-28.88c.09-.73.15-1.46.2-2.16"/>
          <path d="m810.61,483.37l34.44,28.88c-.1.84-.23,1.69-.38,2.56l-34.44-28.88c.16-.87.28-1.73.38-2.56"/>
          <path d="m810.23,485.93l34.44,28.88c-.18,1-.4,2.02-.65,3.06l-34.44-28.88c.25-1.04.47-2.06.65-3.06"/>
          <path d="m809.58,488.99l34.44,28.88c-.3,1.24-.65,2.51-1.06,3.8l-34.44-28.88c.4-1.29.76-2.56,1.06-3.8"/>
          <path d="m808.52,492.79l34.44,28.88c-.49,1.55-1.04,3.14-1.67,4.75l-34.44-28.88c.63-1.62,1.19-3.2,1.67-4.75"/>
          <path d="m806.85,497.54l34.44,28.88c-.71,1.81-1.5,3.66-2.39,5.53l-34.44-28.88c.88-1.87,1.68-3.72,2.39-5.53"/>
          <path d="m804.46,503.07l34.44,28.88c-1.88,3.99-4.16,8.11-6.82,12.25l-34.44-28.88c2.65-4.15,4.94-8.26,6.82-12.25"/>
          <path d="m797.64,515.33l34.44,28.88c-.59.92-1.2,1.84-1.82,2.76l-34.44-28.88c.63-.92,1.23-1.84,1.82-2.76"/>
          <path d="m795.82,518.09l34.44,28.88c-.51.76-1.04,1.52-1.58,2.28l-34.44-28.88c.54-.76,1.07-1.52,1.58-2.28"/>
          <path d="m794.24,520.37l34.44,28.88c-.45.63-.91,1.27-1.38,1.9l-34.44-28.88c.47-.63.93-1.27,1.38-1.9"/>
          <path d="m792.86,522.27l34.44,28.88c-.44.6-.9,1.21-1.36,1.81l-34.44-28.88c.46-.6.91-1.21,1.36-1.81"/>
          <path d="m791.5,524.08l34.44,28.88c-.43.57-.87,1.13-1.32,1.7l-34.44-28.88c.45-.56.88-1.13,1.32-1.7"/>
          <path d="m790.19,525.78l34.44,28.88c-.36.46-.73.92-1.1,1.38l-34.44-28.88c.37-.46.74-.92,1.1-1.38"/>
        </g>
      </g>
    </g>
    <g class="cls-11">
      <g class="cls-13">
        <g class="cls-11">
          <path class="cls-24" d="m806.6,465.54l34.44,28.88c.18.15.36.31.53.47l-34.44-28.88c-.17-.16-.35-.32-.53-.47"/>
          <path class="cls-38" d="m807.13,466.01l34.44,28.88c.3.29.59.59.87.91l-34.44-28.88c-.27-.32-.56-.62-.87-.91"/>
          <path class="cls-29" d="m808,466.93l34.44,28.88c.27.31.52.64.76.98l-34.44-28.88c-.24-.34-.49-.67-.76-.98"/>
          <path class="cls-35" d="m808.76,467.91l34.44,28.88c.23.33.45.68.65,1.04l-34.44-28.88c-.2-.36-.42-.71-.65-1.04"/>
          <path class="cls-23" d="m809.41,468.95l34.44,28.88c.2.36.39.73.56,1.11l-34.44-28.88c-.17-.38-.36-.76-.56-1.11"/>
          <path class="cls-16" d="m809.98,470.06l34.44,28.88c.17.38.33.78.48,1.19l-34.44-28.88c-.15-.41-.31-.81-.48-1.19"/>
          <path class="cls-36" d="m810.46,471.25l34.44,28.88c.15.41.28.84.4,1.27l-34.44-28.88c-.12-.44-.25-.86-.4-1.27"/>
          <path class="cls-15" d="m810.85,472.53l34.44,28.88c.12.44.23.9.32,1.37l-34.44-28.88c-.09-.47-.2-.93-.32-1.37"/>
          <path class="cls-33" d="m811.17,473.9l34.44,28.88c.09.48.17.98.24,1.48l-34.44-28.88c-.06-.51-.14-1-.24-1.48"/>
          <path class="cls-6" d="m811.41,475.38l34.44,28.88c.07.52.11,1.05.15,1.59l-34.44-28.88c-.03-.54-.08-1.07-.15-1.59"/>
          <path class="cls-12" d="m811.56,476.97l34.44,28.88c.04.58.05,1.18.05,1.78l-34.44-28.88c0-.61-.02-1.2-.05-1.78"/>
          <path class="cls-8" d="m811.61,478.76l34.44,28.88c0,.64-.02,1.29-.06,1.95l-34.44-28.88c.04-.66.06-1.32.06-1.95"/>
          <path class="cls-14" d="m811.55,480.71l34.44,28.88c-.04.71-.11,1.45-.2,2.19l-34.44-28.88c.09-.74.15-1.47.2-2.19"/>
          <path class="cls-20" d="m811.35,482.9l34.44,28.88c-.1.85-.23,1.71-.39,2.6l-34.44-28.88c.16-.88.29-1.75.39-2.6"/>
          <path class="cls-28" d="m810.96,485.5l34.44,28.88c-.18,1.01-.4,2.05-.66,3.1l-34.44-28.88c.26-1.05.48-2.09.66-3.1"/>
          <path class="cls-3" d="m810.3,488.6l34.44,28.88c-.31,1.26-.66,2.54-1.07,3.85l-34.44-28.88c.41-1.31.77-2.59,1.07-3.85"/>
          <path class="cls-9" d="m809.23,492.45l34.44,28.88c-.49,1.57-1.06,3.18-1.7,4.82l-34.44-28.88c.64-1.64,1.2-3.25,1.7-4.82"/>
          <path class="cls-7" d="m807.53,497.26l34.44,28.88c-.72,1.84-1.53,3.71-2.42,5.62l-34.44-28.88c.9-1.9,1.71-3.78,2.42-5.62"/>
          <path class="cls-4" d="m805.11,502.88l34.44,28.88c-1.91,4.05-4.23,8.23-6.92,12.44l-34.44-28.88c2.7-4.21,5.01-8.39,6.92-12.44"/>
          <path class="cls-7" d="m798.19,515.33l34.44,28.88c-.6.94-1.23,1.89-1.87,2.83l-34.44-28.88c.64-.94,1.26-1.89,1.87-2.83"/>
          <path class="cls-9" d="m796.32,518.16l34.44,28.88c-.52.77-1.06,1.55-1.61,2.32l-34.44-28.88c.55-.77,1.09-1.55,1.61-2.32"/>
          <path class="cls-3" d="m794.71,520.48l34.44,28.88c-.46.64-.92,1.29-1.4,1.93l-34.44-28.88c.47-.64.94-1.29,1.4-1.93"/>
          <path class="cls-28" d="m793.31,522.41l34.44,28.88c-.45.62-.92,1.23-1.39,1.85l-34.44-28.88c.47-.61.93-1.23,1.39-1.85"/>
          <path class="cls-20" d="m791.92,524.26l34.44,28.88c-.44.58-.89,1.16-1.35,1.74l-34.44-28.88c.46-.58.91-1.16,1.35-1.74"/>
          <path class="cls-14" d="m790.57,526l34.44,28.88c-.37.47-.75.94-1.13,1.41l-34.44-28.88c.38-.47.76-.94,1.13-1.41"/>
        </g>
      </g>
    </g>
    <g class="cls-11">
      <g class="cls-17">
        <g class="cls-11">
          <path d="m420.07,976.47l34.44,28.88c-.81.58-1.61,1.15-2.42,1.69l-34.44-28.88c.8-.54,1.61-1.11,2.42-1.69"/>
          <path d="m417.66,978.16l34.44,28.88c-.89.6-1.78,1.18-2.67,1.73l-34.44-28.88c.89-.55,1.78-1.13,2.67-1.73"/>
          <path d="m414.99,979.89l34.44,28.88c-1.02.64-2.04,1.24-3.05,1.81l-34.44-28.88c1.01-.57,2.02-1.17,3.05-1.81"/>
          <path d="m411.94,981.7l34.44,28.88c-1.28.72-2.55,1.38-3.79,1.98l-34.44-28.88c1.25-.6,2.51-1.26,3.79-1.98"/>
          <path d="m408.15,983.68l34.44,28.88c-9.77,4.7-18.43,5.66-23.94,1.82l-34.44-28.88c5.51,3.84,14.17,2.88,23.94-1.82"/>
        </g>
      </g>
    </g>
    <polygon points="789.08 527.16 823.53 556.04 477.8 982.97 443.36 954.09 789.08 527.16"/>
    <g class="cls-11">
      <g class="cls-34">
        <g class="cls-11">
          <path d="m443.36,954.09l34.44,28.88c-.09.11-.17.21-.26.32l-34.44-28.88c.09-.11.17-.21.26-.32"/>
          <path d="m443.1,954.41l34.44,28.88c-.47.57-.94,1.14-1.41,1.7l-34.44-28.88c.47-.56.94-1.13,1.41-1.7"/>
          <path d="m441.69,956.11l34.44,28.88c-.47.56-.95,1.12-1.43,1.67l-34.44-28.88c.48-.55.95-1.11,1.43-1.67"/>
          <path d="m440.26,957.78l34.44,28.88c-.51.59-1.02,1.17-1.54,1.74l-34.44-28.88c.52-.57,1.03-1.15,1.54-1.74"/>
          <path d="m438.72,959.52l34.44,28.88c-.52.57-1.04,1.14-1.56,1.7l-34.44-28.88c.52-.56,1.04-1.13,1.56-1.7"/>
          <path d="m437.17,961.22l34.44,28.88c-.55.59-1.11,1.18-1.67,1.76l-34.44-28.88c.56-.58,1.11-1.16,1.67-1.76"/>
          <path d="m435.5,962.98l34.44,28.88c-.56.58-1.13,1.15-1.69,1.72l-34.44-28.88c.57-.56,1.13-1.14,1.69-1.72"/>
          <path d="m433.81,964.7l34.44,28.88c-.59.59-1.19,1.17-1.78,1.74l-34.44-28.88c.6-.57,1.19-1.15,1.78-1.74"/>
          <path d="m432.03,966.44l34.44,28.88c-.6.58-1.2,1.14-1.8,1.7l-34.44-28.88c.6-.56,1.2-1.12,1.8-1.7"/>
          <path d="m430.22,968.14l34.44,28.88c-.63.58-1.26,1.15-1.89,1.7l-34.44-28.88c.63-.56,1.26-1.12,1.89-1.7"/>
          <path d="m428.33,969.84l34.44,28.88c-.64.57-1.29,1.12-1.93,1.67l-34.44-28.88c.64-.54,1.29-1.1,1.93-1.67"/>
          <path d="m426.4,971.51l34.44,28.88c-.67.57-1.34,1.12-2.01,1.66l-34.44-28.88c.67-.54,1.34-1.09,2.01-1.66"/>
          <path d="m424.39,973.17l34.44,28.88c-.71.57-1.41,1.12-2.12,1.66l-34.44-28.88c.71-.54,1.41-1.09,2.12-1.66"/>
          <path d="m422.27,974.83l34.44,28.88c-.74.56-1.47,1.11-2.2,1.64l-34.44-28.88c.73-.53,1.47-1.08,2.2-1.64"/>
          <path d="m420.07,976.47l34.44,28.88c-.81.58-1.61,1.15-2.42,1.69l-34.44-28.88c.8-.54,1.61-1.11,2.42-1.69"/>
        </g>
      </g>
    </g>
    <polygon class="cls-2" points="789.45 527.41 823.89 556.29 478.17 983.22 443.72 954.34 789.45 527.41"/>
    <path d="m443.36,954.09c-20.74,25.61-47.28,39.69-59.16,31.4L43.82,747.98c-11.89-8.29-4.68-35.87,16.06-61.48l345.72-426.93c20.73-25.6,47.27-39.7,59.16-31.4l340.38,237.52c11.88,8.29,4.68,35.88-16.06,61.48l-345.72,426.93Z"/>
    <g class="cls-11">
      <g class="cls-25">
        <g class="cls-11">
          <path class="cls-14" d="m443.72,954.34l34.44,28.88c-.09.11-.18.22-.26.32l-34.44-28.88c.09-.11.18-.22.26-.32"/>
          <path class="cls-8" d="m443.46,954.67l34.44,28.88c-.48.59-.96,1.17-1.44,1.74l-34.44-28.88c.48-.57.96-1.15,1.44-1.74"/>
          <path class="cls-12" d="m442.02,956.41l34.44,28.88c-.48.57-.97,1.14-1.46,1.7l-34.44-28.88c.49-.56.97-1.13,1.46-1.7"/>
          <path class="cls-6" d="m440.56,958.11l34.44,28.88c-.52.6-1.05,1.19-1.57,1.78l-34.44-28.88c.53-.59,1.05-1.18,1.57-1.78"/>
          <path class="cls-33" d="m438.99,959.89l34.44,28.88c-.53.59-1.06,1.17-1.59,1.74l-34.44-28.88c.53-.57,1.06-1.15,1.59-1.74"/>
          <path class="cls-15" d="m437.4,961.62l34.44,28.88c-.56.61-1.13,1.2-1.7,1.79l-34.44-28.88c.57-.59,1.13-1.19,1.7-1.79"/>
          <path class="cls-36" d="m435.7,963.41l34.44,28.88c-.57.59-1.15,1.18-1.72,1.75l-34.44-28.88c.58-.57,1.15-1.16,1.72-1.75"/>
          <path class="cls-16" d="m433.98,965.16l34.44,28.88c-.6.6-1.21,1.19-1.82,1.78l-34.44-28.88c.61-.58,1.21-1.17,1.82-1.78"/>
          <path class="cls-23" d="m432.16,966.94l34.44,28.88c-.61.59-1.22,1.16-1.84,1.73l-34.44-28.88c.61-.57,1.23-1.14,1.84-1.73"/>
          <path class="cls-35" d="m430.33,968.67l34.44,28.88c-.64.59-1.28,1.17-1.92,1.73l-34.44-28.88c.64-.57,1.28-1.14,1.92-1.73"/>
          <path class="cls-29" d="m428.41,970.4l34.44,28.88c-.65.58-1.31,1.14-1.96,1.7l-34.44-28.88c.65-.55,1.31-1.12,1.96-1.7"/>
          <path class="cls-38" d="m426.44,972.09l34.44,28.88c-.68.57-1.36,1.14-2.04,1.68l-34.44-28.88c.68-.55,1.36-1.11,2.04-1.68"/>
          <path class="cls-24" d="m424.4,973.78l34.44,28.88c-.72.58-1.44,1.14-2.15,1.69l-34.44-28.88c.72-.55,1.44-1.11,2.15-1.69"/>
          <path class="cls-41" d="m422.25,975.47l34.44,28.88c-.75.57-1.49,1.13-2.24,1.66l-34.44-28.88c.74-.54,1.49-1.09,2.24-1.66"/>
          <path class="cls-31" d="m420.01,977.13l34.44,28.88c-.82.59-1.64,1.16-2.45,1.71l-34.44-28.88c.81-.55,1.63-1.12,2.45-1.71"/>
          <path class="cls-39" d="m417.56,978.85l34.44,28.88c-.91.61-1.81,1.2-2.71,1.76l-34.44-28.88c.9-.56,1.8-1.15,2.71-1.76"/>
          <path class="cls-22" d="m414.85,980.6l34.44,28.88c-1.04.65-2.07,1.26-3.09,1.83l-34.44-28.88c1.02-.57,2.05-1.19,3.09-1.83"/>
          <path class="cls-40" d="m411.76,982.44l34.44,28.88c-1.3.73-2.58,1.4-3.85,2.01l-34.44-28.88c1.27-.61,2.55-1.28,3.85-2.01"/>
          <path class="cls-27" d="m407.91,984.44l34.44,28.88c-9.93,4.77-18.73,5.75-24.35,1.83l-34.44-28.88c5.61,3.92,14.41,2.94,24.35-1.83"/>
        </g>
      </g>
    </g>
    <path class="cls-1" d="m443.72,954.34c-21.12,26.08-48.05,40.38-60.15,31.93L43.19,748.76c-12.1-8.44-4.79-36.44,16.33-62.52l345.72-426.93c21.12-26.08,48.05-40.37,60.15-31.93l340.38,237.52c12.1,8.44,4.8,36.43-16.32,62.51l-345.72,426.93ZM43.82,747.98l340.38,237.52c11.88,8.29,38.42-5.79,59.16-31.4l345.72-426.93c20.73-25.6,27.94-53.19,16.05-61.48l-340.38-237.52c-11.89-8.29-38.43,5.8-59.16,31.4L59.88,686.5c-20.74,25.61-27.94,53.19-16.05,61.48"/>
  </g>
  <path class="cls-5" d="m280.81,502.8c35.5-50.03,114.9-44.56,141.88,17.53,8.89,20.46,12.24,43.44,15.68,68.38.16,1.13.5,1.29,1.56,1.13,38.8-5.82,96.25-15.96,131.3,30.78,14.75,19.67,18.74,41.73,11.7,65.23-23.59,78.65-126.38,81.7-156.48,6.44-7.59-18.98-10.85-39.79-14.29-64.96-.18-1.34-.61-1.49-1.83-1.31-28.39,4.26-59.08,9.02-86.17.39-55.13-17.55-77.69-75.02-43.34-123.62h0Zm28.15,19.5c-19.77,29.44-7.8,58.97,19.23,71.29,23.36,10.65,53.43,5.53,78.81,1.47.86-.14.73-.54.63-1.1-3.8-20.96-5.38-44.28-15.28-63.06-19.2-36.4-62.77-36.49-83.4-8.6h0Zm232.44,171.41c19.58-28.11,9.07-59.21-20.24-71.96-23.07-10.03-52.97-4.93-77.59-1-.85.14-.84.51-.72,1.17,5.3,29.26,6.73,70.27,38,86.3,20.83,10.68,46.35,4.62,60.55-14.52h0Z"/>
</svg>